<?xml version="1.0" encoding="UTF-8"?>
<svg id="Layer_1" data-name="Layer 1" xmlns="http://www.w3.org/2000/svg" xmlns:xlink="http://www.w3.org/1999/xlink" viewBox="0 0 2458.67 1082.67">
  <defs>
    <style>
      .cls-1 {
        fill: #fff;
        font-family: Sansation-Light, 'Sansation Light';
        font-size: 312.11px;
        font-weight: 300;
      }

      .cls-2 {
        fill: url(#linear-gradient-3);
      }

      .cls-3 {
        fill: url(#linear-gradient-2);
        opacity: .59;
      }

      .cls-4 {
        fill: #1b68b5;
        font-size: 644.44px;
      }

      .cls-4, .cls-5 {
        font-family: FreestyleScript-Regular, 'Freestyle Script';
      }

      .cls-6 {
        fill: url(#linear-gradient);
        filter: url(#drop-shadow-1);
      }

      .cls-5 {
        font-size: 724.27px;
      }

      .cls-7 {
        fill: none;
        stroke: #99dbff;
        stroke-miterlimit: 10;
        stroke-width: 3px;
      }

      .cls-8 {
        fill: #3283c5;
      }
    </style>
    <linearGradient id="linear-gradient" x1="1644.07" y1="186.19" x2="1782" y2="297.14" gradientTransform="translate(2459.13 1620.77) rotate(-136.13) scale(1 .83)" gradientUnits="userSpaceOnUse">
      <stop offset="0" stop-color="#6dd2b3"/>
      <stop offset="1" stop-color="#e7d5fb"/>
    </linearGradient>
    <filter id="drop-shadow-1" x="1296.53" y="237.44" width="149.12" height="147.36" filterUnits="userSpaceOnUse">
      <feOffset dx="13" dy="7"/>
      <feGaussianBlur result="blur" stdDeviation="4"/>
      <feFlood flood-color="#000" flood-opacity=".11"/>
      <feComposite in2="blur" operator="in"/>
      <feComposite in="SourceGraphic"/>
    </filter>
    <linearGradient id="linear-gradient-2" x1="542.65" y1="-173.83" x2="1232.49" y2="1446.74" gradientUnits="userSpaceOnUse">
      <stop offset=".13" stop-color="#6dd2b3"/>
      <stop offset=".24" stop-color="#e7d5fb" stop-opacity=".7"/>
      <stop offset=".3" stop-color="#fff" stop-opacity="0"/>
    </linearGradient>
    <linearGradient id="linear-gradient-3" x1="2170.28" y1="428.11" x2="593.65" y2="849.93" gradientUnits="userSpaceOnUse">
      <stop offset=".18" stop-color="#afe5d6"/>
      <stop offset=".22" stop-color="#a5e2d3"/>
      <stop offset=".28" stop-color="#8cdbcd"/>
      <stop offset=".37" stop-color="#62cfc2"/>
      <stop offset=".47" stop-color="#29bfb3"/>
      <stop offset=".49" stop-color="#1ebcb1"/>
      <stop offset=".78" stop-color="#0075be"/>
      <stop offset=".99" stop-color="#005b97"/>
    </linearGradient>
  </defs>
  <text class="cls-1" transform="translate(288.04 475.03)"><tspan x="0" y="0">INTIRA</tspan></text>
  <rect class="cls-8" x="196.7" y="625.79" width="24.6" height="24.6"/>
  <rect class="cls-8" x="181.7" y="130.72" width="24.6" height="24.6"/>
  <rect class="cls-8" x="1443.56" y="130.72" width="24.6" height="24.6"/>
  <line class="cls-7" x1="1435.17" y1="143.02" x2="216.44" y2="143.02"/>
  <path id="I" class="cls-6" d="M1417.99,284.53c.42-.46,3.77-4.26,2.24-9.11-.22-.7-.78-2.49-2.5-4.15-1.17-1.13-2.64-1.96-4.28-2.36l-105.29-26.01c-3.26-.8-6.7.19-9.02,2.6-2.33,2.42-3.19,5.9-2.25,9.12l30.14,104.19c.93,3.22,3.52,5.71,6.77,6.51,3.26.8,6.7-.19,9.02-2.61-.38-6.43-1.45-36.14,20.96-58.02,20.48-20,47.11-20.3,54.2-20.16Z"/>
  <path class="cls-3" d="M255.51,189.82h1080.2v429.55H242.03V203.3c0-7.44,6.04-13.48,13.48-13.48Z"/>
  <line class="cls-7" x1="193.99" y1="174.84" x2="193.99" y2="610.67"/>
  <rect class="cls-8" x="2151.59" y="844.74" width="24.6" height="24.6" transform="translate(4327.77 1714.09) rotate(180)"/>
  <rect class="cls-8" x="1757.8" y="844.74" width="24.6" height="24.6" transform="translate(3540.2 1714.09) rotate(180)"/>
  <line class="cls-7" x1="1794.35" y1="857.04" x2="2136.96" y2="857.04"/>
  <line class="cls-7" x1="2163.88" y1="825.22" x2="2163.88" y2="532.55"/>
  <rect class="cls-8" x="2151.59" y="493.25" width="24.6" height="24.6" transform="translate(4327.77 1011.09) rotate(180)"/>
  <g>
    <text class="cls-5" transform="translate(713.12 888.86) rotate(-7.75) scale(.98 1)"><tspan x="0" y="0">ortfolio!</tspan></text>
    <g>
      <path class="cls-2" d="M791.07,620.22c18.73-2.55,29.69,7.86,32.87,31.22,4.23,31.07-4.47,72.35-26.09,123.83-23.6,55.8-49.67,85.63-78.23,89.52-13.25,1.8-23.82-3.18-31.71-14.96-4.06-5.87-6.69-13.24-7.9-22.12-4.07-29.9,1.57-63.74,16.9-101.52,14.31-35.02,32.94-63.25,55.85-84.69,13.42-12.53,26.18-19.62,38.3-21.27ZM773.44,757.52c-6.35-3.89-9.7-7.12-10.05-9.7-.25-1.87,2.7-7.51,8.87-16.91,17.35-26.39,25.05-46.83,23.08-61.32-.25-1.87-1.08-3.66-2.48-5.37-2.31-3.25-5.4-4.62-9.28-4.09-7.32,1-17.07,9.7-29.26,26.11-15.74,21.18-27.05,42.35-33.95,63.51-8.11,24.19-11.15,43.75-9.12,58.7.54,3.97,2.05,7.34,4.52,10.09,3.54,3.8,7.6,5.39,12.17,4.77,10.97-1.49,21.59-11.5,31.87-30.03,4.53-7.76,8-15.6,10.41-23.54,2.41-7.94,3.48-12.01,3.22-12.22Z"/>
      <path class="cls-2" d="M899.02,718.31c19.05-27.58,41.61-55.03,67.68-82.38,9.36-9.84,19.5-19.19,30.39-28.05,5.46-4.31,8.99-6.58,10.6-6.8,3.43-.47,7.21,1.64,11.33,6.31,2.44,2.52,3.82,4.96,4.13,7.29.57,4.2-2.99,10.52-10.69,18.94-20.73,22.09-30.45,37.93-29.14,47.51.73,5.38,4.06,7.66,10.01,6.85,9.82-1.34,25.61-11.93,47.34-31.78,3.73-3.36,6.97-5.23,9.71-5.6,1.83-.25,3.78.44,5.87,2.06,2.34,1.82,3.67,3.91,3.99,6.24.95,7.01-7.18,19.06-24.4,36.16-18.01,18.16-36.04,28.46-54.09,30.92-7.32,1-14.32-.07-21.03-3.21-5.7-2.55-9.12-8.04-10.27-16.45-.79-5.84.7-12.82,4.48-20.95-16.27,15.54-34.47,40.86-54.6,75.95-11.5,21.55-22.26,47.64-32.29,78.27-3.79,11.46-9.57,17.72-17.34,18.78-8.45,1.15-13.24-2.36-14.35-10.54-1.08-7.94,2.66-30.1,11.2-66.48,12.66-54.06,27.8-96.7,45.43-127.89,10.86-19.32,20.76-29.59,29.67-30.81,2.97-.4,5.84.16,8.61,1.68,3.29,1.93,5.17,4.65,5.65,8.15.48,3.5-1.14,8.72-4.85,15.65-.76,1.3-5.75,9.95-14.97,25.95-8.41,15.19-14.43,29.92-18.07,44.22Z"/>
      <path class="cls-2" d="M1161.61,570.15c-11.64,25.62-21.76,53.88-30.35,84.79-12.39,44.04-17.19,76.34-14.39,96.9.8,5.84,2.6,10.12,5.41,12.83,2.81,2.71,6.62,3.74,11.42,3.09,11.42-1.55,23.75-14.41,36.99-38.58,8.44-14.95,15.73-29.74,21.89-44.38,3.29-8.3,7.45-12.79,12.48-13.48,2.97-.4,5.63.3,7.97,2.13,2.11,1.85,3.31,3.83,3.6,5.93,1.18,8.65-7.29,29.43-25.38,62.34-21.61,39.58-43.38,60.87-65.32,63.85-11.65,1.59-22.11-2.58-31.37-12.5-5.75-6.36-9.5-15.96-11.25-28.81-3.85-28.26-.33-62.29,10.55-102.08,2.61-9.87,10.28-33.88,23.01-72.02-5.95,2.48-10.52,3.93-13.72,4.37-4.8.65-9.19.06-13.16-1.78-5.47-2.58-8.54-6.33-9.21-11.24-.79-5.84,1.88-10.96,8.03-15.37,1.7-1.18,9.95-3.85,24.74-8.01,5.36-1.68,13.05-4.99,23.09-9.92,5.99-15.81,16.3-37.55,30.92-65.24,8.14-15.39,13.87-25.44,17.19-30.18,4.69-6.58,9.09-10.16,13.2-10.72,2.97-.4,6.16.83,9.58,3.69,3.16,2.67,4.94,5.52,5.35,8.55.83,6.08-3.94,18.98-14.28,38.71-6.87,12.84-11.86,23.15-14.99,30.95,24.41-10.46,42.1-16.44,53.06-17.93,12.56-1.71,19.58,2.81,21.04,13.55.73,5.38-.9,9.64-4.89,12.8-2.1,1.71-7.88,3.69-17.35,5.93-3.92.3-20.57,7.08-49.94,20.36-8.11,3.72-16.08,7.54-23.92,11.46Z"/>
      <path class="cls-2" d="M1272.3,616.48c24.47-81.85,50.09-149.22,76.87-202.12,18.17-35.78,33.66-62.16,46.48-79.13,8.85-11.91,16.93-18.36,24.25-19.36,2.74-.37,5.27.24,7.58,1.82,3.52,1.9,5.55,4.84,6.09,8.81.7,5.14-2.3,13.04-8.99,23.71-42.49,65.74-78.59,142.51-108.3,230.31,34.62-19.22,59.13-29.82,73.52-31.78,10.51-1.43,19.56.08,27.15,4.51,7.84,4.64,12.26,10.59,13.25,17.83.51,3.74-.29,7.3-2.39,10.68-2.82,4.91-6.98,7.73-12.46,8.48-3.89.53-11.99-1.7-24.3-6.69-3.42-1.2-7.65-1.46-12.67-.77-22.85,3.11-48.82,17.47-77.92,43.08,14.6,4.68,25.49,12,32.66,21.97,9.83,14.13,16.26,32.29,19.28,54.48,7.79,57.24-.68,119.89-25.39,187.97-10.71,29.06-21.85,51.51-33.42,67.36-12.33,17.14-26.03,26.74-41.11,28.79-11.42,1.55-21.44-2.79-30.05-13.04-6.98-8.57-11.57-20.91-13.77-37.03-4.71-34.58,1.02-88.3,17.17-161.16,2.06-8.85,8.25-31.69,18.6-68.56,2.71-9.17,5.22-18.91,7.54-29.22-1.77.72-3.45,1.18-5.05,1.4-6.17.84-9.73-2.25-10.68-9.25-1.68-12.38,10.33-30.08,36.06-53.09ZM1290.19,660.8c-9.43,26.51-20.9,68.75-34.42,126.75-14.04,59.25-18.96,104.41-14.73,135.48.83,6.07,3.05,11.24,6.65,15.51,3.84,4.23,7.93,6.06,12.26,5.47,14.17-1.93,29.48-28.76,45.95-80.49,18.67-57.74,24.94-109.16,18.81-154.24-2.38-17.52-7.5-30.26-15.33-38.24-2.99-3.16-9.39-6.57-19.2-10.24Z"/>
      <path class="cls-2" d="M1519.04,521.16c18.73-2.55,29.7,7.86,32.87,31.22,4.23,31.07-4.47,72.35-26.09,123.83-23.6,55.8-49.67,85.63-78.23,89.52-13.25,1.8-23.82-3.18-31.71-14.96-4.06-5.87-6.69-13.24-7.9-22.12-4.07-29.9,1.57-63.74,16.91-101.52,14.31-35.02,32.93-63.25,55.85-84.69,13.42-12.53,26.18-19.62,38.3-21.27ZM1501.42,658.47c-6.35-3.89-9.7-7.12-10.05-9.7-.25-1.87,2.7-7.51,8.87-16.91,17.35-26.39,25.05-46.83,23.08-61.32-.25-1.87-1.08-3.66-2.48-5.37-2.31-3.25-5.4-4.62-9.28-4.09-7.32,1-17.07,9.7-29.26,26.11-15.74,21.18-27.05,42.35-33.95,63.51-8.11,24.18-11.15,43.75-9.12,58.7.54,3.97,2.05,7.34,4.52,10.09,3.54,3.8,7.6,5.39,12.17,4.77,10.97-1.49,21.59-11.5,31.87-30.03,4.53-7.75,8-15.6,10.41-23.54,2.41-7.94,3.48-12.01,3.22-12.22Z"/>
      <path class="cls-2" d="M1620.68,619.04c-4.38,19.15-7.51,34.57-9.42,46.25s-2.55,19.74-1.95,24.18c.79,5.84,3.93,8.39,9.42,7.64,8.23-1.12,17.77-10.5,28.63-28.17,5.12-8.55,12.37-23.69,21.75-45.43,3.72-8.59,8.2-13.25,13.46-13.97,5.94-.81,9.31,1.71,10.1,7.55,1.37,10.05-7.18,31.91-25.63,65.59-19.18,35.21-38.83,54.18-58.93,56.91-8.68,1.18-16.27-1.59-22.78-8.32-4.61-4.84-7.45-11.12-8.5-18.83-1.78-13.08-.36-31.72,4.26-55.9s12.33-53.9,23.13-89.16c27.82-89.68,58.46-164.64,91.93-224.87,26.7-48.36,50.78-74.01,72.26-76.93,6.86-.93,12.82.99,17.89,5.77,5.3,4.76,8.43,10.63,9.38,17.64,4.45,32.71-16.71,91.03-63.46,174.95-20.98,37.36-46.99,75.4-78.03,114.12-8.16,10.16-19.33,23.81-33.52,40.97ZM1637.44,560.01c41.87-48.05,77.21-106.39,106.04-175.04,14.94-35.58,21.68-58.74,20.22-69.49-.7-5.14-3.22-7.41-7.56-6.82-12.57,1.71-31.94,30.4-58.11,86.07-21.7,45.78-41.9,100.88-60.59,165.28Z"/>
      <path class="cls-2" d="M1792.35,500.39c3.88-.53,7.29.56,10.22,3.25,2.18,2.33,3.44,4.77,3.79,7.34.57,4.21-1.79,11.66-7.08,22.38-18.65,40.85-31.34,74.1-38.09,99.76-7.34,26.46-13.32,53.45-17.96,80.96-2.06,12.18-6.98,18.8-14.75,19.85-4.57.62-8.48-.75-11.73-4.11-2.92-2.69-4.63-5.8-5.11-9.3-.95-7.01,3.18-31.36,12.4-73.07,7.17-32.86,20.97-69.95,41.41-111.28,6.54-13.5,11.58-22.63,15.12-27.4,3.51-5,7.43-7.79,11.78-8.38ZM1839.78,361.52c10.28-1.4,16.16,3.28,17.62,14.02,1.33,9.81-2.22,21.36-10.65,34.64-8.04,12.75-16.51,19.74-25.42,20.95-4.34.59-8.1-.56-11.29-3.46-3.16-2.66-5.04-6.21-5.64-10.65-1.53-11.21,2.91-23.95,13.3-38.21,7.64-10.55,15-16.32,22.08-17.28Z"/>
      <path class="cls-2" d="M1925.19,465.89c18.73-2.55,29.7,7.86,32.87,31.22,4.23,31.07-4.47,72.35-26.09,123.83-23.6,55.8-49.67,85.63-78.23,89.52-13.25,1.8-23.82-3.18-31.71-14.96-4.05-5.87-6.69-13.24-7.9-22.12-4.07-29.9,1.57-63.74,16.91-101.52,14.31-35.02,32.93-63.25,55.85-84.69,13.42-12.53,26.18-19.62,38.3-21.27ZM1907.57,603.2c-6.35-3.89-9.7-7.12-10.05-9.7-.25-1.87,2.7-7.51,8.87-16.91,17.35-26.39,25.05-46.83,23.07-61.32-.25-1.87-1.08-3.65-2.48-5.37-2.31-3.25-5.4-4.62-9.28-4.09-7.32,1-17.07,9.7-29.26,26.11-15.74,21.18-27.05,42.35-33.95,63.51-8.11,24.18-11.15,43.75-9.12,58.7.54,3.97,2.05,7.34,4.51,10.09,3.54,3.8,7.6,5.39,12.17,4.77,10.97-1.49,21.59-11.5,31.87-30.03,4.53-7.75,8-15.6,10.41-23.54,2.41-7.94,3.48-12.01,3.23-12.22Z"/>
      <path class="cls-2" d="M2018.96,657.28c5.02-.68,9.57,1.08,13.64,5.28,2.69,2.73,4.37,6.43,5,11.1,1.49,10.98.1,22.95-4.19,35.9-4.42,13.68-11.66,21.22-21.71,22.58-10.51,1.43-16.59-3.93-18.25-16.08-1.65-12.14.32-25.03,5.91-38.64,5.07-12.34,11.6-19.07,19.6-20.16ZM2185.09,210.67c5.02-.68,9.2.89,12.51,4.72,2.76,3.19,4.45,7.01,5.05,11.45,1.3,9.58-3.1,28.5-13.22,56.76-41.55,115.35-80.04,212.19-115.46,290.53-5.69,12.91-9.18,21.47-10.47,25.69-4.39,12.26-9.78,18.82-16.17,19.69-4.57.62-8.93-1.52-13.09-6.43-3.58-4.03-5.71-8.62-6.41-13.76-.89-6.54,1.18-16.1,6.22-28.69,1.38-3.52,7.64-17.33,18.79-41.46,13.82-33.52,27.58-66.69,41.27-99.48,4.51-11.32,17.82-46.91,39.93-106.79,7.84-21.05,14.08-37.61,18.73-49.66,5.5-14.31,10.59-29.04,15.28-44.19,3.59-11.2,9.28-17.32,17.05-18.38Z"/>
    </g>
  </g>
  <text class="cls-4" transform="translate(434.11 953.02) rotate(-10.21) scale(.98 1)"><tspan x="0" y="0">P</tspan></text>
</svg>